<svg width="32" height="33" viewBox="0 0 32 33" fill="none" xmlns="http://www.w3.org/2000/svg">
<g clip-path="url(#clip0_455_831)">
<path d="M34 3.5C34 -5.33656 22.3365 -12.5 13.5 -12.5C4.66341 -12.5 -2.50003 2.66344 -2.50003 11.5C-2.50003 19.4859 -12 50.5 13.5 32.3056V21.125H9.43747V16.5H13.5V12.975C13.5 8.965 15.8887 6.75 19.5434 6.75C21.2934 6.75 23.125 7.0625 23.125 7.0625V11H21.1075C19.12 11 18.5 12.2334 18.5 13.5V16.5H22.9375L22.2281 21.125H18.5V32.3056C42.5 60.5 34 11.4859 34 3.5Z" fill="white"/>
</g>
<defs>
<clipPath id="clip0_455_831">
<rect y="0.5" width="32" height="32" rx="2" fill="white"/>
</clipPath>
</defs>
</svg>
