<svg width="305" height="120" viewBox="0 0 305 120" fill="none" xmlns="http://www.w3.org/2000/svg">
<g clip-path="url(#clip0_83_32)">
<mask id="mask0_83_32" style="mask-type:luminance" maskUnits="userSpaceOnUse" x="45" y="41" width="215" height="38">
<path d="M45.996 41.2334H259.051V78.0879H45.996V41.2334Z" fill="white"/>
</mask>
<g mask="url(#mask0_83_32)">
<mask id="mask1_83_32" style="mask-type:luminance" maskUnits="userSpaceOnUse" x="45" y="41" width="215" height="38">
<path d="M45.9969 78.0879H259.052V41.2334H45.9969V78.0879Z" fill="white"/>
</mask>
<g mask="url(#mask1_83_32)">
<path d="M129.545 45.2677C129.545 44.3923 129.886 43.5529 130.494 42.9339C131.101 42.3149 131.924 41.9672 132.783 41.9672C133.642 41.9672 134.465 42.3149 135.072 42.9339C135.679 43.5529 136.02 44.3923 136.02 45.2677C135.989 46.1217 135.634 46.9301 135.031 47.5231C134.427 48.116 133.621 48.4473 132.783 48.4473C131.945 48.4473 131.139 48.116 130.535 47.5231C129.931 46.9301 129.577 46.1217 129.545 45.2677Z" fill="white"/>
<path d="M180.627 67.2786C180.627 65.4468 182.074 63.9666 183.858 63.9666C184.719 63.9666 185.545 64.3153 186.153 64.936C186.762 65.5567 187.104 66.3985 187.104 67.2763C187.104 68.154 186.762 68.9959 186.153 69.6166C185.545 70.2372 184.719 70.5859 183.858 70.5859C182.077 70.5859 180.627 69.1035 180.627 67.2763" fill="white"/>
<path d="M76.4124 65.847C73.6258 65.847 71.6869 63.59 71.6869 60.3631C71.6869 57.1384 73.6257 54.8837 76.4146 54.8837C79.217 54.8837 81.1762 57.1384 81.1762 60.3631C81.1762 63.6406 79.2599 65.847 76.4124 65.847ZM76.4124 50.064C70.5145 50.064 66.2331 54.3965 66.2331 60.3631C66.2331 66.332 70.5168 70.6621 76.4124 70.6621C82.3351 70.6621 86.6322 66.332 86.6322 60.3654C86.6322 54.3965 82.3329 50.064 76.4124 50.064ZM123.275 60.8802C123.07 60.4755 122.811 60.1019 122.504 59.7701L122.324 59.5793L122.513 59.3954C122.784 59.1035 123.061 58.7588 123.327 58.3589L128.535 50.4708H122.214L118.302 56.642C118.081 56.973 117.635 57.1384 116.965 57.1384H116.074V45.4718C116.074 43.139 114.647 42.8218 113.107 42.8218H110.47L110.476 70.3587H116.077V62.0983H116.602C117.24 62.0983 117.673 62.1742 117.874 62.5281L120.962 68.4717C121.826 70.0852 122.685 70.3587 124.303 70.3587H128.594L125.397 64.9713L123.278 60.8802M150.461 50.018C147.611 50.018 145.794 51.3097 144.775 52.4015L144.437 52.7508L144.315 52.2751C144.017 51.1052 143.007 50.4639 141.49 50.4639H138.981L138.996 70.3518H144.558V61.1859C144.558 60.2895 144.671 59.5127 144.906 58.8025C145.523 56.6535 147.25 55.3181 149.408 55.3181C151.144 55.3181 151.823 56.2536 151.823 58.6669V67.3295C151.823 69.3888 152.758 70.3518 154.78 70.3518H157.427L157.418 57.7015C157.418 52.6773 155.013 50.018 150.461 50.018ZM132.85 50.4708H130.215L130.233 65.8493V70.3587H133.044L133.144 70.3633L134.456 70.3587H135.759V70.3518H135.768L135.779 53.4932C135.779 51.4591 134.826 50.4731 132.853 50.4731M98.2567 65.847C95.4701 65.847 93.5289 63.59 93.5289 60.3631C93.5289 57.1384 95.4701 54.8837 98.259 54.8837C101.055 54.8837 103.021 57.1384 103.021 60.3631C103.021 63.6406 101.104 65.847 98.259 65.847H98.2567ZM98.2567 50.064C92.3543 50.064 88.0706 54.3965 88.0706 60.3631C88.0706 66.332 92.3544 70.6621 98.259 70.6621C104.173 70.6621 108.479 66.332 108.479 60.3654C108.479 54.3965 104.173 50.064 98.259 50.064" fill="white"/>
</g>
</g>
<mask id="mask2_83_32" style="mask-type:luminance" maskUnits="userSpaceOnUse" x="45" y="41" width="215" height="38">
<path d="M45.996 41.2334H259.051V78.0879H45.996V41.2334Z" fill="white"/>
</mask>
<g mask="url(#mask2_83_32)">
<mask id="mask3_83_32" style="mask-type:luminance" maskUnits="userSpaceOnUse" x="45" y="41" width="215" height="38">
<path d="M45.9967 41.9591H259.007V78.0391H45.9967V41.9591Z" fill="white"/>
</mask>
<g mask="url(#mask3_83_32)">
<mask id="mask4_83_32" style="mask-type:luminance" maskUnits="userSpaceOnUse" x="45" y="41" width="215" height="38">
<path d="M45.9974 78.0869H259.052V41.2324H45.9974V78.0869Z" fill="white"/>
</mask>
<g mask="url(#mask4_83_32)">
<path d="M217.467 65.846C214.68 65.846 212.737 63.589 212.737 60.3621C212.737 57.1375 214.68 54.8827 217.467 54.8827C220.267 54.8827 222.231 57.1375 222.231 60.3621C222.231 63.6396 220.314 65.846 217.467 65.846ZM217.467 50.063C211.565 50.063 207.283 54.3955 207.283 60.3621C207.283 66.331 211.565 70.6611 217.467 70.6611C223.383 70.6611 227.687 66.331 227.687 60.3644C227.687 54.3955 223.381 50.063 217.467 50.063Z" fill="white"/>
<path d="M169.145 64.9704C166.104 64.9704 165.022 62.2675 165.022 59.7324C165.022 58.6154 165.299 54.977 168.854 54.977C170.62 54.977 172.971 55.4919 172.971 59.9186C172.971 64.0947 170.89 64.9704 169.145 64.9704ZM175.859 50.417C174.804 50.417 173.993 50.8468 173.584 51.6306L173.431 51.934L173.174 51.7041C172.277 50.9135 170.667 49.9735 168.054 49.9735C162.853 49.9735 159.351 53.9566 159.351 59.8795C159.351 65.8001 162.975 69.9372 168.158 69.9372C169.928 69.9372 171.328 69.5143 172.437 68.6593L172.865 68.3306V68.8822C172.865 71.5392 171.181 73.0055 168.126 73.0055C166.64 73.0055 165.29 72.6378 164.384 72.3022C163.207 71.9391 162.512 72.2402 162.037 73.4468L161.595 74.5592L160.97 76.1865L161.356 76.3956C163.313 77.4529 165.858 78.085 168.158 78.085C172.892 78.085 178.425 75.6142 178.425 68.6593L178.445 50.417H175.859Z" fill="white"/>
</g>
</g>
</g>
<mask id="mask5_83_32" style="mask-type:luminance" maskUnits="userSpaceOnUse" x="45" y="41" width="215" height="38">
<path d="M45.996 41.2334H259.051V78.0879H45.996V41.2334Z" fill="white"/>
</mask>
<g mask="url(#mask5_83_32)">
<mask id="mask6_83_32" style="mask-type:luminance" maskUnits="userSpaceOnUse" x="45" y="41" width="215" height="38">
<path d="M45.9969 78.0879H259.052V41.2334H45.9969V78.0879Z" fill="white"/>
</mask>
<g mask="url(#mask6_83_32)">
<path d="M55.7025 65.6193L51.1754 65.6147V60.0986C51.1754 58.9173 51.624 58.3059 52.6138 58.1634H55.7025C57.9052 58.1634 59.33 59.5792 59.3323 61.8707C59.33 64.2242 57.9413 65.617 55.7025 65.617V65.6193ZM51.1754 50.735V49.2824C51.1754 48.0114 51.703 47.407 52.8596 47.3288H55.1773C57.1635 47.3288 58.3539 48.5401 58.3539 50.5695C58.3539 52.114 57.5377 53.9183 55.2494 53.9183H51.1754V50.735ZM61.4832 56.2419L60.6648 55.7731L61.3795 55.1502C62.2114 54.4216 63.6025 52.7829 63.6025 49.9559C63.6025 45.6257 60.3109 42.8309 55.2133 42.8309H48.7337C48.0046 42.858 47.3137 43.17 46.8042 43.7023C46.2946 44.2346 46.0055 44.9464 45.9967 45.6901V70.2598H55.3282C60.9939 70.2598 64.6508 67.1156 64.6508 62.2453C64.6508 59.6229 63.4695 57.3819 61.4832 56.2419Z" fill="white"/>
<path d="M252.529 50.0848C251.381 50.0892 250.249 50.3564 249.215 50.8668C248.182 51.3772 247.274 52.1177 246.559 53.0337L246.158 53.5531L245.842 52.9716C244.81 51.0571 243.038 50.0848 240.574 50.0848C237.988 50.0848 236.254 51.5558 235.449 52.4292L234.921 53.0107L234.718 52.2453C234.425 51.1421 233.463 50.5376 232.006 50.5376H229.668L229.646 70.3497H234.955V61.6043C234.955 60.8367 235.05 60.0805 235.237 59.2876C235.744 57.173 237.138 54.8999 239.48 55.1275C240.923 55.27 241.631 56.4077 241.631 58.6049V70.3497H246.979V61.6043C246.979 60.6459 247.067 59.9288 247.279 59.2117C247.707 57.1937 249.163 55.1252 251.423 55.1252C253.059 55.1252 253.663 56.0675 253.663 58.6049V67.4537C253.663 69.4533 254.538 70.3497 256.502 70.3497H259L259.005 57.7017C259.005 52.6475 256.822 50.0848 252.529 50.0848ZM204.205 63.4706C204.19 63.4913 201.906 65.946 198.896 65.946C196.154 65.946 193.386 64.2314 193.386 60.4046C193.386 57.0995 195.532 54.7896 198.607 54.7896C199.604 54.7896 200.74 55.1528 200.918 55.7664L200.943 55.8699C201.057 56.2923 201.304 56.6648 201.646 56.9295C201.989 57.1942 202.407 57.3364 202.837 57.3339L205.745 57.3385V54.746C205.745 51.326 201.477 50.0848 198.607 50.0848C192.466 50.0848 188.011 54.4426 188.011 60.4459C188.011 66.4447 192.416 70.7979 198.495 70.7979C203.766 70.7979 206.634 67.2652 206.661 67.2308L206.814 67.0377L204.51 63.1419L204.205 63.4706Z" fill="white"/>
</g>
</g>
</g>
<defs>
<clipPath id="clip0_83_32">
<rect width="214" height="37" fill="white" transform="translate(45.5 41.5)"/>
</clipPath>
</defs>
</svg>
