<svg width="305" height="120" viewBox="0 0 305 120" fill="none" xmlns="http://www.w3.org/2000/svg">
<path d="M99.3797 51.3931V60.9284H110.389V51.3931H113.359V74.1836H110.389V63.4981H99.3797V74.1836H96.442V51.3931H99.3797Z" fill="white"/>
<path d="M119.387 66.0352C119.387 69.619 121.446 72.3236 124.349 72.3236C127.187 72.3236 129.314 69.6529 129.314 65.9664C129.314 63.1934 127.929 59.6781 124.419 59.6781C120.906 59.6781 119.387 62.9235 119.387 66.0352ZM132.352 65.8666C132.352 71.9174 128.165 74.5557 124.215 74.5557C119.792 74.5557 116.381 71.3095 116.381 66.1365C116.381 60.6586 119.961 57.447 124.485 57.447C129.179 57.447 132.352 60.8597 132.352 65.8666Z" fill="white"/>
<path d="M135.306 62.2475C135.306 60.556 135.273 59.1693 135.172 57.8179H137.773L137.906 60.4547H138.007C138.92 58.8983 140.438 57.4453 143.14 57.4453C145.368 57.4453 147.058 58.7985 147.767 60.7243H147.834C148.34 59.8126 148.983 59.1019 149.658 58.5945C150.637 57.85 151.716 57.4453 153.27 57.4453C155.431 57.4453 158.64 58.8659 158.64 64.5459V74.1846H155.735V64.9182C155.735 61.774 154.587 59.8803 152.19 59.8803C150.501 59.8803 149.184 61.1318 148.678 62.5848C148.544 62.991 148.441 63.5326 148.441 64.0735V74.1846H145.539V64.3773C145.539 61.774 144.39 59.8803 142.127 59.8803C140.27 59.8803 138.92 61.3682 138.446 62.8558C138.278 63.2955 138.21 63.8025 138.21 64.3099V74.1846H135.306V62.2475Z" fill="white"/>
<path d="M173.298 64.2154C173.333 62.2842 172.507 59.2827 169.097 59.2827C166.032 59.2827 164.688 62.1116 164.447 64.2154H173.298ZM164.412 66.3891C164.48 70.4933 167.099 72.1834 170.13 72.1834C172.3 72.1834 173.609 71.805 174.744 71.321L175.262 73.4937C174.193 73.9776 172.368 74.5625 169.716 74.5625C164.584 74.5625 161.519 71.1495 161.519 66.1131C161.519 61.0777 164.48 57.1112 169.338 57.1112C174.779 57.1112 176.225 61.9055 176.225 64.974C176.225 65.5956 176.157 66.0781 176.122 66.3891H164.412Z" fill="white"/>
<path d="M190.648 64.5266L188.374 57.8346C187.859 56.3171 187.513 54.937 187.169 53.5921H187.1C186.757 54.9723 186.377 56.386 185.93 57.7997L183.656 64.5266H190.648ZM183.035 66.8718L180.625 74.1836H177.526L185.412 50.9366H189.03L196.951 74.1836H193.747L191.267 66.8718H183.035Z" fill="white"/>
<path d="M199.94 57.4897L202.143 65.9741C202.626 67.8368 203.073 69.5618 203.384 71.2854H203.487C203.865 69.5968 204.417 67.8029 204.969 65.9741L207.689 57.4897H210.238L212.821 65.8364C213.441 67.8368 213.923 69.5968 214.302 71.2854H214.404C214.681 69.5968 215.129 67.8368 215.678 65.8703L218.055 57.4897H221.052L215.678 74.1846H212.924L210.374 66.2166C209.79 64.3539 209.307 62.6976 208.895 60.7326H208.825C208.412 62.7326 207.896 64.4566 207.31 66.2501L204.623 74.1846H201.868L196.84 57.4897H199.94Z" fill="white"/>
<path d="M231.928 65.6639C228.621 65.5951 224.866 66.1825 224.866 69.424C224.866 71.3905 226.176 72.3206 227.726 72.3206C229.896 72.3206 231.272 70.9418 231.756 69.5263C231.858 69.2164 231.928 68.8715 231.928 68.5627V65.6639ZM234.855 70.1829C234.855 71.6305 234.923 73.0456 235.131 74.1833H232.375L232.135 72.0791H232.031C231.101 73.3908 229.309 74.5635 226.932 74.5635C223.558 74.5635 221.835 72.1829 221.835 69.7692C221.835 65.7324 225.418 63.5263 231.858 63.5601V63.2149C231.858 61.8358 231.48 59.3522 228.071 59.3522C226.52 59.3522 224.901 59.8358 223.729 60.5947L223.041 58.5918C224.419 57.6956 226.417 57.1107 228.517 57.1107C233.614 57.1107 234.855 60.5947 234.855 63.9385V70.1829Z" fill="white"/>
<path d="M239.772 57.4897L243.423 67.3543C243.801 68.4577 244.214 69.7694 244.49 70.7691H244.56C244.868 69.7694 245.213 68.493 245.628 67.2854L248.934 57.4897H252.137L247.59 69.3892C245.42 75.1147 243.938 77.5897 241.873 79.3836C240.391 80.6939 238.91 81.211 238.154 81.3486L237.395 78.7958C238.154 78.5547 239.153 78.0722 240.048 77.3133C240.874 76.6567 241.908 75.4841 242.597 73.9331C242.733 73.6221 242.836 73.3806 242.836 73.208C242.836 73.0358 242.769 72.7958 242.63 72.4156L236.465 57.4897H239.772Z" fill="white"/>
<path d="M64.2402 62.162C63.327 63.3552 62.0125 64.1609 60.5112 64.2384C60.431 64.2438 60.3507 64.2453 60.2705 64.2453C58.7563 64.2453 57.377 63.4982 56.377 62.3306C55.3745 61.1595 54.7243 59.5587 54.6296 57.7753C54.6232 57.6272 54.6192 57.4794 54.6192 57.3342C54.6192 55.5987 55.1593 54.0044 56.0726 52.8098C56.9869 51.6152 58.3014 50.8109 59.8027 50.732C59.8819 50.7295 59.9646 50.7255 60.0423 50.7255C61.5576 50.7255 62.9373 51.4725 63.9373 52.6412C64.9408 53.8098 65.5886 55.4117 65.6832 57.1955C65.6908 57.3446 65.6961 57.491 65.6961 57.6376C65.6961 59.3731 65.1571 60.9659 64.2402 62.162ZM60.2043 41.1683L51.3087 52.4686L51.2594 66.9159L59.4763 65.9534C59.4763 65.9534 61.0344 65.6979 61.1381 67.1728C61.2536 68.8265 59.7872 68.8165 59.7872 68.8165L51.2594 69.9682L51.2414 73.0551L69.5144 76.3574L69.4975 52.4686L60.2043 41.1683Z" fill="white"/>
<path d="M77.4485 54.8732L73.1679 55.0743L73.138 60.918L77.4589 60.5778L77.4485 54.8732Z" fill="white"/>
<path d="M73.1515 62.7456L73.1346 68.6084L77.4854 68.1907L77.4544 62.4094L73.1515 62.7456Z" fill="white"/>
<path d="M57.0099 57.6842C56.8908 55.3933 58.1046 53.4658 59.726 53.3515C58.7714 53.9872 58.146 55.6643 58.2482 57.5984C58.3493 59.557 59.1625 61.1743 60.1974 61.6882L60.1988 61.7116C58.5591 61.7959 57.1341 59.9945 57.0099 57.6842ZM63.0948 53.3648C62.2607 52.3944 61.1845 51.8355 60.042 51.8355C59.9811 51.8355 59.9203 51.8365 59.8595 51.8405C58.7249 51.9018 57.7106 52.4996 56.9517 53.4841C56.1992 54.4672 55.725 55.8279 55.725 57.3339C55.725 57.4597 55.73 57.5869 55.7368 57.7166C55.8171 59.2676 56.3856 60.6373 57.2172 61.6067C58.0513 62.5754 59.129 63.1357 60.2701 63.1357C60.3309 63.1357 60.3928 63.1332 60.454 63.1293C61.5886 63.0684 62.6026 62.4691 63.3604 61.4874C64.1143 60.504 64.5871 59.1418 64.5871 57.6373C64.5871 57.5105 64.5831 57.3843 64.5767 57.255C64.4975 55.7047 63.9289 54.3324 63.0948 53.3648Z" fill="white"/>
<path d="M79.219 54.7854L79.2205 60.4629L82.7915 60.2369L82.7836 54.6726L79.219 54.7854Z" fill="white"/>
<path d="M79.219 68.0156L82.7825 67.6769V62.0332L79.219 62.2916V68.0156Z" fill="white"/>
<path d="M79.2221 60.4609L79.2207 54.7848L82.7838 54.6731L82.7917 60.2353L79.2221 60.4609ZM82.7827 67.6765L79.2207 68.0152V62.2926L82.7827 62.0328V67.6765ZM73.1358 68.608L73.1513 62.7453L77.4553 62.409L77.4837 68.1903L73.1358 68.608ZM51.2399 73.0545L51.2593 69.9662L59.7857 68.8159C59.7857 68.8159 61.2546 68.826 61.1369 67.1734C61.0358 65.6973 59.4763 65.9543 59.4763 65.9543L51.2593 66.9139L51.3101 52.467L60.2057 41.1678L69.4989 52.467L69.5129 76.3583L51.2399 73.0545ZM73.1682 55.0742L77.4503 54.8731L77.4607 60.5777L73.1397 60.9179L73.1682 55.0742ZM77.1718 38.6503H57.391L45.7171 52.45H49.8322V67.1424L46.6951 67.5511C46.6951 67.5511 45.1834 67.8336 45.5605 69.4437C45.875 70.4527 47.0863 70.4059 47.0863 70.4059L49.8322 70.0624V74.1335L69.4053 77.6787L84.9652 74.1648L84.9378 52.4745H89.5164L77.1718 38.6503Z" fill="#B9B9B9"/>
<path d="M63.3611 61.4875C62.6048 62.4717 61.5893 63.0684 60.4547 63.1293C60.3935 63.1333 60.3331 63.1358 60.2719 63.1358C59.1298 63.1358 58.0521 62.5754 57.2165 61.6068C56.3849 60.6374 55.8178 59.2677 55.7387 57.7167C55.7307 57.5869 55.7257 57.4597 55.7257 57.334C55.7257 55.828 56.2 54.4673 56.9535 53.4842C57.7099 52.4997 58.7268 51.9019 59.8603 51.8406C59.9211 51.8381 59.9819 51.8355 60.0427 51.8355C61.1852 51.8355 62.2629 52.3945 63.097 53.3649C63.9311 54.3325 64.4982 55.7048 64.576 57.255C64.585 57.3844 64.5889 57.5105 64.5889 57.6374C64.5889 59.1419 64.115 60.5041 63.3611 61.4875ZM63.9376 52.6409C62.9362 51.4723 61.558 50.7263 60.0427 50.7263C59.9639 50.7263 59.8837 50.7278 59.803 50.7318C58.3018 50.8107 56.9873 51.6136 56.0744 52.8096C55.1597 54.0057 54.6196 55.5985 54.6196 57.334C54.6196 57.4792 54.6235 57.6269 54.63 57.775C54.7246 59.5585 55.3749 61.1592 56.3774 62.3304C57.3774 63.498 58.7566 64.2461 60.2719 64.2461C60.3511 64.2461 60.4313 64.2436 60.5116 64.2382C62.0128 64.1607 63.3273 63.3549 64.2406 62.1618C65.1575 60.9657 65.6965 59.3743 65.6965 57.6374C65.6965 57.4922 65.6925 57.3444 65.6835 57.1952C65.5889 55.4103 64.9412 53.8096 63.9376 52.6409Z" fill="white"/>
<path d="M58.2473 57.6003C58.1476 55.6647 58.7719 53.9876 59.7266 53.3519C58.1051 53.4662 56.8914 55.3938 57.0105 57.6846C57.1336 59.9934 58.5607 61.7963 60.1994 61.712L60.198 61.6886C59.1645 61.1747 58.3498 59.5574 58.2473 57.6003Z" fill="white"/>
<path d="M256.437 60.0863H256.723C257.056 60.0863 257.325 59.9735 257.325 59.7051C257.325 59.4651 257.152 59.3054 256.769 59.3054C256.612 59.3054 256.5 59.3224 256.437 59.3379V60.0863ZM256.421 61.5483H255.819V58.9566C256.056 58.9083 256.389 58.8607 256.818 58.8607C257.311 58.8607 257.533 58.9411 257.722 59.068C257.867 59.1797 257.977 59.3858 257.977 59.6233C257.977 59.9267 257.754 60.1498 257.437 60.2445V60.2755C257.691 60.3562 257.834 60.5624 257.915 60.9112C257.992 61.3094 258.04 61.4676 258.104 61.5483H257.452C257.373 61.4521 257.325 61.2305 257.247 60.9281C257.2 60.6417 257.04 60.5141 256.708 60.5141H256.421V61.5483ZM256.818 58.1133C255.675 58.1133 254.819 59.0525 254.819 60.1952C254.819 61.3559 255.675 62.2784 256.849 62.2784C257.992 62.2939 258.835 61.3559 258.835 60.1952C258.835 59.0525 257.992 58.1133 256.835 58.1133H256.818ZM256.849 57.5879C258.342 57.5879 259.5 58.749 259.5 60.1952C259.5 61.6752 258.342 62.8193 256.835 62.8193C255.342 62.8193 254.152 61.6752 254.152 60.1952C254.152 58.749 255.342 57.5879 256.835 57.5879H256.849Z" fill="white"/>
</svg>
