<svg width="305" height="120" viewBox="0 0 305 120" fill="none" xmlns="http://www.w3.org/2000/svg">
<mask id="mask0_83_95" style="mask-type:luminance" maskUnits="userSpaceOnUse" x="45" y="29" width="215" height="62">
<path d="M45.5 90.2832H259.5V29.7171H45.5V90.2832Z" fill="white"/>
</mask>
<g mask="url(#mask0_83_95)">
<path d="M148.533 77.1094H141.896C141.866 77.1094 141.848 77.1034 141.83 77.0826L136.112 70.0912L130.387 77.0826C130.375 77.1034 130.354 77.1094 130.325 77.1094H125.01C124.978 77.1094 124.954 77.0945 124.93 77.0588C124.921 77.038 124.921 76.9993 124.942 76.9755L133.365 66.6193L125.04 56.3614C125.016 56.3257 125.016 56.2959 125.025 56.2632C125.04 56.2453 125.073 56.2156 125.1 56.2156H131.74C131.76 56.2156 131.784 56.2275 131.802 56.2572L136.819 62.481L141.925 56.2542C141.94 56.2275 141.964 56.2156 141.988 56.2156H147.4C147.433 56.2156 147.466 56.2453 147.477 56.2632C147.492 56.2959 147.486 56.3316 147.466 56.3614L139.562 65.8607L148.589 76.9755C148.613 76.9993 148.622 77.038 148.604 77.0588C148.589 77.0945 148.559 77.1094 148.533 77.1094Z" fill="white"/>
<path d="M184.454 59.8999C181.515 59.8999 179.508 61.685 178.935 64.7879H188.933V64.5886C188.933 62.1044 187.105 59.8999 184.454 59.8999ZM194.09 67.9713C194.075 67.9951 194.045 68.0099 194.019 68.0099H178.828C179.143 71.5502 181.44 73.5673 185.159 73.5673C187.447 73.5673 189.878 72.7849 193.314 70.9552C193.377 70.9195 193.439 70.9731 193.439 71.0385L193.433 75.7153C193.427 75.754 193.409 75.7778 193.383 75.7867C190.188 77.1344 186.978 78.0537 184.454 78.0537C177.912 78.0537 173.172 73.2817 173.172 66.7098C173.172 60.1379 177.912 55.366 184.454 55.366C190.422 55.366 194.257 59.3912 194.257 64.9278C194.257 65.8233 194.102 67.9058 194.09 67.9713Z" fill="white"/>
<path d="M224.95 51.9027C223.087 51.9027 221.571 50.4092 221.571 48.5707C221.571 46.6785 223.087 45.1464 224.95 45.1464C226.814 45.1464 228.333 46.6785 228.333 48.5707C228.333 50.4092 226.814 51.9027 224.95 51.9027ZM222.222 77.1104C222.168 77.1104 222.135 77.0776 222.135 77.0241V56.3028C222.135 56.2612 222.165 56.2285 222.201 56.2195H227.688C227.732 56.2285 227.756 56.2612 227.756 56.3028V77.0241C227.756 77.0776 227.72 77.1104 227.676 77.1104H222.222Z" fill="white"/>
<path d="M158.567 73.9898C157.578 73.9898 156.564 73.85 155.399 73.5376L155.411 60.2451C156.775 59.8107 157.961 59.6054 159.135 59.6054C162.94 59.6054 165.493 62.4139 165.493 66.5849C165.493 71.0832 162.773 73.9898 158.567 73.9898ZM160.059 55.369C158.511 55.369 156.948 55.6516 155.307 56.2168H149.847C149.802 56.2168 149.77 56.2555 149.77 56.3031V90.2842C151.419 90.0581 153.44 89.469 155.402 88.0707L155.399 77.7354C156.745 77.9258 157.857 78.0537 158.93 78.0537C166.408 78.0537 171.247 73.5674 171.247 66.6206C171.247 59.9981 166.643 55.369 160.059 55.369Z" fill="white"/>
<path d="M212.231 72.2694C210.522 73.1679 208.995 73.5933 207.559 73.5933C204.174 73.5933 202.144 71.1984 202.144 67.188C202.144 62.5469 204.735 59.5451 208.742 59.5451C209.848 59.5451 210.923 59.8158 212.231 60.4079V72.2694ZM212.231 45.247V56.094C210.629 55.6359 209.217 55.4246 207.794 55.4246C201.288 55.4246 196.374 60.3335 196.374 66.8548C196.374 73.3464 200.708 78.0529 206.67 78.0529C208.736 78.0529 210.668 77.5352 212.942 76.3631L212.939 78.2344C214.44 77.9488 216.164 77.3478 217.864 76.1429V43.0276C216.193 43.2507 214.214 43.81 212.231 45.247Z" fill="white"/>
<path d="M246.765 72.2277C245.113 73.1827 243.695 73.6409 242.429 73.6409C238.803 73.6409 236.63 71.2549 236.63 67.2297C236.63 62.657 239.189 59.5897 242.994 59.5897C244.013 59.5897 245.249 59.9794 246.765 60.7827V72.2277ZM252.404 55.9661C252.404 55.8382 252.294 55.737 252.169 55.737L247.734 55.743C247.603 55.743 247.493 55.856 247.493 55.981V56.7366H247.381C245.333 55.8382 243.588 55.4246 241.867 55.4246C235.732 55.4246 230.923 60.515 230.923 67.0392C230.923 73.6349 235.227 78.0559 241.632 78.0559C243.347 78.0559 245.544 77.9369 247.6 75.5687V78.2344C249.054 77.925 250.769 77.3062 252.398 76.134L252.404 55.9661Z" fill="white"/>
<path d="M109.83 71.925L123.604 71.919C123.396 73.4601 122.876 75.263 121.681 77.1016H109.863H107.509H107.352C105.598 77.1016 104.157 75.742 103.984 74.0224C103.975 73.9956 103.966 73.9718 103.963 73.948V59.8284V46.759C103.966 46.7382 103.975 46.7084 103.984 46.6906C104.157 44.968 105.598 43.6025 107.352 43.6025C107.408 43.6025 107.462 43.6084 107.509 43.6084L123.574 43.6054C123.363 45.1435 122.843 46.994 121.651 48.8267H109.83V56.2286H121.532C121.58 56.2286 121.615 56.2613 121.615 56.3089V61.4439C121.615 61.4855 121.58 61.5242 121.532 61.5242H109.83V71.919V71.925Z" fill="white"/>
<path d="M92.5893 77.5332C91.228 77.5332 90.3869 76.4681 90.3869 75.165C90.3869 73.7697 91.3499 72.7969 92.5893 72.7969C93.8168 72.7969 94.7769 73.7697 94.7769 75.165C94.7769 76.5633 93.8168 77.5332 92.5893 77.5332ZM92.5893 72.5291C91.1953 72.5291 90.0035 73.5793 90.0035 75.165C90.0035 76.6644 91.0794 77.792 92.5893 77.792C93.9655 77.792 95.1633 76.7477 95.1633 75.165C95.1633 73.5793 93.9655 72.5291 92.5893 72.5291Z" fill="white"/>
<path d="M91.9712 74.9486V73.9877H92.6191C92.946 73.9877 93.3324 74.0382 93.3324 74.4369C93.3324 74.9099 92.9758 74.9486 92.5686 74.9486H91.9712ZM93.811 74.4994C93.811 73.8716 93.4246 73.6039 92.6756 73.6039H91.4956V76.7188H92.0098V75.3859H92.4854L93.2908 76.7188H93.8704L92.9966 75.3502C93.4692 75.2937 93.811 75.0646 93.811 74.4994Z" fill="white"/>
<path d="M256.932 59.666C255.571 59.666 254.724 58.6009 254.724 57.2978C254.724 55.9025 255.69 54.9297 256.932 54.9297C258.157 54.9297 259.12 55.9025 259.12 57.2978C259.12 58.6961 258.157 59.666 256.932 59.666ZM256.932 54.6619C255.538 54.6619 254.346 55.7121 254.346 57.2978C254.346 58.7973 255.419 59.9248 256.932 59.9248C258.305 59.9248 259.5 58.8776 259.5 57.2978C259.5 55.7121 258.305 54.6619 256.932 54.6619Z" fill="white"/>
<path d="M256.312 57.0795V56.1215H256.96C257.287 56.1215 257.673 56.1691 257.673 56.5677C257.673 57.0438 257.313 57.0795 256.912 57.0795H256.312ZM258.152 56.6302C258.152 56.0025 257.765 55.7347 257.016 55.7347H255.836V58.8496H256.345V57.5198H256.826L257.632 58.8496H258.208L257.337 57.4811C257.807 57.4275 258.152 57.1955 258.152 56.6302Z" fill="white"/>
<path d="M74.8221 48.8016L73.8235 45.9723L65.3526 34.6404L66.8744 34.2625L81.4799 46.9006L90.0756 44.4402C91.0861 44.1784 92.2334 44.1219 93.1073 44.1278C90.4055 38.2967 85.4627 33.5098 78.9357 31.1833C66.0333 26.5809 51.8469 33.3284 47.2578 46.249C45.837 50.2445 45.4982 54.3679 46.0956 58.2891L66.6872 51.1281L74.8221 48.8016Z" fill="white"/>
<path d="M94.0129 46.3613C93.258 46.8522 92.1493 47.4948 91.0496 47.8488L82.4361 50.3092L76.6878 68.7783L75.1958 69.2632L76.4084 55.1585L75.7308 52.2281L67.6582 54.5337L46.3236 59.5616C48.0118 67.7817 53.8255 74.9396 62.2993 77.9623C75.2047 82.5647 89.3852 75.8143 93.9743 62.9026C95.9538 57.3362 95.826 51.5289 94.0129 46.3613Z" fill="white"/>
<path d="M75.7302 52.2295L76.4108 55.157L75.1952 69.2617L76.6872 68.7768L82.4355 50.3106L91.049 47.8503C92.1487 47.4962 93.2574 46.8477 94.0123 46.3627C93.7478 45.6041 93.4446 44.8574 93.1087 44.1285C92.2349 44.1225 91.0876 44.182 90.0771 44.4379L81.4814 46.9042L66.8729 34.2602L65.3541 34.641L73.822 45.973L74.8236 48.7993L66.6857 51.1317L46.0971 58.2867C46.1625 58.7152 46.2368 59.1406 46.323 59.563L67.6606 54.5352L75.7302 52.2295Z" fill="black"/>
</g>
</svg>
