<svg width="305" height="120" viewBox="0 0 305 120" fill="none" xmlns="http://www.w3.org/2000/svg">
<g clip-path="url(#clip0_83_89)">
<path d="M258.297 67.4925C257.633 67.4925 257.094 68.02 257.094 68.6694C257.094 69.3189 257.633 69.8464 258.297 69.8464C258.961 69.8464 259.5 69.3189 259.5 68.6694C259.5 68.02 258.961 67.4925 258.297 67.4925ZM258.297 69.6597C257.738 69.6597 257.285 69.2143 257.285 68.6694C257.285 68.122 257.74 67.6792 258.297 67.6792C258.857 67.6792 259.312 68.1246 259.312 68.6694C259.312 69.2143 258.857 69.6597 258.297 69.6597ZM258.689 68.4679C258.689 68.2539 258.534 68.127 258.305 68.127H257.921V69.1994H258.109V68.8113H258.315L258.513 69.1994H258.717L258.498 68.7715C258.615 68.7192 258.689 68.6146 258.689 68.4679ZM258.297 68.6445H258.111V68.2888H258.297C258.424 68.2888 258.501 68.351 258.501 68.4654C258.501 68.5824 258.422 68.6445 258.297 68.6445ZM113.354 55.5817V52.7352H108.894V69.6696H113.354V59.5155C113.354 57.6767 114.56 56.7735 116.439 56.7735H118.881V52.7353H116.795C115.162 52.7352 113.743 53.5687 113.354 55.5817ZM123.059 46.0371C121.533 46.0371 120.363 47.2165 120.363 48.7094C120.363 50.1675 121.533 51.3469 123.059 51.3469C124.585 51.3469 125.755 50.1675 125.755 48.7094C125.755 47.2165 124.585 46.0371 123.059 46.0371ZM120.834 69.6697H125.284V52.7352H120.834V69.6697ZM146.484 61.2024C146.484 66.0369 142.479 69.9558 137.537 69.9558C135.543 69.9558 133.735 69.3164 132.286 68.2365V74.6411H127.835V52.7352H132.286V54.1684C133.735 53.0885 135.543 52.4491 137.537 52.4491C142.479 52.4491 146.484 56.3679 146.484 61.2024ZM142.006 61.2024C142.006 58.5774 139.829 56.4475 137.146 56.4475C134.463 56.4475 132.286 58.5774 132.286 61.2024C132.286 63.8275 134.463 65.9573 137.146 65.9573C139.829 65.9573 142.006 63.83 142.006 61.2024ZM223.837 59.717L221.241 59.0203C219.532 58.5849 218.868 58.0723 218.868 57.189C218.868 56.3281 219.804 55.726 221.141 55.726C222.416 55.726 223.415 56.5421 223.415 57.5871V57.6841H227.517V57.5871C227.517 54.5142 224.956 52.449 221.141 52.449C217.365 52.449 214.621 54.5117 214.621 57.3556C214.621 59.5676 216.119 61.2347 218.733 61.9264L221.22 62.5908C223.11 63.1033 223.812 63.6707 223.812 64.6883C223.812 65.7608 222.797 66.4823 221.286 66.4823C219.712 66.4823 218.652 65.5069 218.652 64.0588V63.9617H214.298V64.0588C214.298 67.5323 217.156 69.9607 221.251 69.9607C225.195 69.9607 228.059 67.5895 228.059 64.325C228.059 62.7227 227.326 60.6277 223.837 59.717ZM162.272 52.7352H166.723V69.6696H162.272V68.2364C160.823 69.3163 159.014 69.9558 157.021 69.9558C152.079 69.9558 148.074 66.0369 148.074 61.2024C148.074 56.3678 152.079 52.449 157.021 52.449C159.014 52.449 160.823 53.0885 162.272 54.1683V52.7352ZM162.272 61.2024C162.272 58.5749 160.095 56.4475 157.412 56.4475C154.729 56.4475 152.552 58.5774 152.552 61.2024C152.552 63.8275 154.729 65.9573 157.412 65.9573C160.098 65.9573 162.272 63.83 162.272 61.2024ZM182.793 46.7089H187.244V69.6721H182.793V68.2389C181.343 69.3188 179.535 69.9583 177.541 69.9583C172.6 69.9583 168.594 66.0394 168.594 61.2049C168.594 56.3703 172.6 52.4515 177.541 52.4515C179.535 52.4515 181.343 53.091 182.793 54.1708V46.7089ZM182.793 61.2024C182.793 58.5774 180.616 56.4475 177.933 56.4475C175.25 56.4475 173.073 58.5774 173.073 61.2024C173.073 63.8275 175.247 65.9573 177.933 65.9573C180.616 65.9573 182.793 63.83 182.793 61.2024ZM207.907 69.6697H212.357V52.7352H207.907V69.6697ZM210.132 46.0371C208.606 46.0371 207.436 47.2165 207.436 48.7094C207.436 50.1675 208.606 51.3469 210.132 51.3469C211.658 51.3469 212.828 50.1675 212.828 48.7094C212.828 47.2165 211.658 46.0371 210.132 46.0371ZM247.295 61.2024C247.295 66.0369 243.29 69.9558 238.348 69.9558C233.407 69.9558 229.402 66.037 229.402 61.2024C229.402 56.3679 233.407 52.4491 238.348 52.4491C243.29 52.4491 247.295 56.3679 247.295 61.2024ZM243.209 61.2024C243.209 58.5774 241.032 56.4475 238.348 56.4475C235.665 56.4475 233.489 58.5774 233.489 61.2024C233.489 63.8275 235.663 65.9573 238.348 65.9573C241.031 65.9573 243.209 63.83 243.209 61.2024ZM111.076 46.7089H94.0033V50.5929H100.323V69.6696H104.758V50.5929H111.078V46.7089H111.076ZM197.414 65.0317L193.454 52.7353H188.78L194.718 69.6697H200.074L206.048 52.7353H201.373L197.414 65.0317ZM253.816 55.5817V52.7352H249.355V69.6696H253.816V59.5155C253.816 57.6767 255.022 56.7735 256.901 56.7735H259.342V52.7353H257.257C255.624 52.7352 254.208 53.5687 253.816 55.5817Z" fill="white"/>
<path d="M68.2614 82.2695C80.8321 82.2695 91.0227 72.2993 91.0227 60.0005C91.0227 47.7016 80.8321 37.7314 68.2614 37.7314C55.6906 37.7314 45.5 47.7016 45.5 60.0005C45.5 72.2993 55.6906 82.2695 68.2614 82.2695Z" fill="white"/>
<path d="M82.32 55.6561L85.0666 52.7325H78.9757C75.9265 50.6946 72.2439 49.5078 68.2613 49.5078C64.2838 49.5078 60.6115 50.6972 57.5673 52.7325H51.4612L54.2078 55.6561C52.5243 57.1589 51.4688 59.3237 51.4688 61.7272C51.4688 66.2631 55.2277 69.9406 59.8639 69.9406C62.0663 69.9406 64.0728 69.1096 65.5707 67.751L68.2614 70.6174L70.9521 67.7535C72.45 69.1121 74.454 69.9406 76.6564 69.9406C81.2926 69.9406 85.0565 66.2631 85.0565 61.7272C85.059 59.3212 84.0036 57.1565 82.32 55.6561ZM59.8664 67.2858C56.7281 67.2858 54.185 64.7977 54.185 61.7272C54.185 58.6568 56.7281 56.1686 59.8664 56.1686C63.0046 56.1686 65.5478 58.6568 65.5478 61.7272C65.5478 64.7977 63.0046 67.2858 59.8664 67.2858ZM68.2639 61.5655C68.2639 57.9079 65.5453 54.7678 61.9569 53.4267C63.8973 52.6329 66.0259 52.1925 68.2613 52.1925C70.4968 52.1925 72.6279 52.6329 74.5684 53.4267C70.9826 54.7703 68.2639 57.9079 68.2639 61.5655ZM76.6589 67.2858C73.5206 67.2858 70.9775 64.7977 70.9775 61.7272C70.9775 58.6568 73.5206 56.1686 76.6589 56.1686C79.7972 56.1686 82.3403 58.6568 82.3403 61.7272C82.3403 64.7977 79.7972 67.2858 76.6589 67.2858ZM76.6589 58.811C75.0135 58.811 73.6808 60.1149 73.6808 61.7247C73.6808 63.3345 75.0135 64.6384 76.6589 64.6384C78.3043 64.6384 79.637 63.3345 79.637 61.7247C79.6369 60.1174 78.3043 58.811 76.6589 58.811ZM62.8444 61.7272C62.8444 63.337 61.5118 64.6409 59.8664 64.6409C58.221 64.6409 56.8883 63.337 56.8883 61.7272C56.8883 60.1174 58.221 58.8135 59.8664 58.8135C61.5118 58.811 62.8444 60.1174 62.8444 61.7272Z" fill="black"/>
</g>
<defs>
<clipPath id="clip0_83_89">
<rect width="214" height="44.5381" fill="white" transform="translate(45.5 37.7314)"/>
</clipPath>
</defs>
</svg>
