<svg width="630" height="400" viewBox="0 0 630 400" fill="none" xmlns="http://www.w3.org/2000/svg">
<path d="M319 240L315.923 244.885L321.692 245.107L319 240ZM535.065 283.504C527.854 282.564 521.336 280.87 514.428 278.851C507.528 276.833 500.223 274.486 491.487 272.26C473.996 267.803 450.747 263.824 413.171 263.824L413.171 264.824C450.668 264.824 473.834 268.793 491.24 273.229C499.954 275.449 507.217 277.784 514.148 279.81C521.072 281.835 527.648 283.546 534.935 284.496L535.065 283.504ZM413.171 263.824C378.063 263.824 354.714 263.861 340.042 261.41C332.706 260.185 327.62 258.349 324.325 255.638C321.061 252.952 319.504 249.362 319.327 244.478L318.327 244.514C318.513 249.621 320.16 253.505 323.69 256.41C327.189 259.29 332.487 261.162 339.877 262.396C354.654 264.865 378.113 264.824 413.171 264.824L413.171 263.824Z" fill="#8D8D8D"/>
<path d="M319 240L321.668 245.12L315.899 244.87L319 240ZM102.938 281.504C110.151 280.606 116.67 278.989 123.577 277.061C130.479 275.135 137.783 272.895 146.518 270.77C164.007 266.516 187.255 262.719 224.829 262.719L224.829 263.719C187.33 263.719 164.162 267.507 146.754 271.742C138.041 273.861 130.776 276.09 123.846 278.024C116.923 279.957 110.348 281.589 103.062 282.496L102.938 281.504ZM224.829 262.719C242.515 262.719 257.126 262.984 269.066 263.024C281.025 263.063 290.327 262.876 297.479 261.976C304.638 261.075 309.564 259.467 312.835 256.729C316.083 254.01 317.771 250.113 318.307 244.448L319.303 244.543C318.751 250.364 316.995 254.551 313.477 257.496C309.981 260.422 304.819 262.06 297.603 262.968C290.38 263.877 281.019 264.063 269.063 264.024C257.087 263.984 242.53 263.719 224.829 263.719L224.829 262.719Z" fill="#8D8D8D"/>
<path d="M319 161L322.077 156.115L316.308 155.893L319 161ZM102.935 117.496C110.146 118.436 116.664 120.13 123.572 122.149C130.472 124.167 137.777 126.514 146.513 128.74C164.004 133.197 187.253 137.176 224.829 137.176L224.829 136.176C187.332 136.176 164.166 132.207 146.76 127.771C138.046 125.551 130.783 123.216 123.852 121.19C116.928 119.165 110.352 117.454 103.065 116.504L102.935 117.496ZM224.829 137.176C259.937 137.176 283.286 137.139 297.958 139.59C305.294 140.815 310.38 142.651 313.675 145.362C316.939 148.048 318.496 151.638 318.673 156.522L319.673 156.486C319.487 151.379 317.84 147.495 314.31 144.59C310.811 141.71 305.513 139.838 298.123 138.604C283.346 136.135 259.887 136.176 224.829 136.176L224.829 137.176Z" fill="#8D8D8D"/>
<path d="M319 161L316.332 155.88L322.101 156.13L319 161ZM535.062 119.496C527.849 120.394 521.33 122.011 514.423 123.939C507.521 125.865 500.217 128.105 491.482 130.23C473.993 134.484 450.745 138.281 413.171 138.281L413.171 137.281C450.67 137.281 473.838 133.493 491.246 129.258C499.959 127.139 507.224 124.91 514.154 122.976C521.077 121.043 527.652 119.411 534.938 118.504L535.062 119.496ZM413.171 138.281C395.485 138.281 380.874 138.016 368.934 137.976C356.975 137.937 347.673 138.124 340.521 139.024C333.362 139.925 328.436 141.533 325.165 144.271C321.917 146.99 320.229 150.887 319.693 156.552L318.697 156.457C319.249 150.636 321.005 146.449 324.523 143.504C328.019 140.578 333.181 138.94 340.397 138.032C347.62 137.123 356.981 136.937 368.937 136.976C380.913 137.016 395.47 137.281 413.171 137.281L413.171 138.281Z" fill="#8D8D8D"/>
<rect y="42" width="305" height="79" rx="18" fill="#1A1A1A"/>
<path d="M90.28 88H87.256L83.704 81.88H80.44V88H77.68V71.2H84.4C85.904 71.2 87.176 71.728 88.216 72.784C89.272 73.808 89.8 75.08 89.8 76.6C89.8 77.672 89.488 78.656 88.864 79.552C88.256 80.432 87.456 81.072 86.464 81.472L90.28 88ZM84.4 73.792H80.44V79.408H84.4C85.136 79.408 85.76 79.136 86.272 78.592C86.784 78.048 87.04 77.384 87.04 76.6C87.04 75.816 86.784 75.152 86.272 74.608C85.76 74.064 85.136 73.792 84.4 73.792ZM103.288 84.784L105.472 87.16L103.24 88.456L101.632 86.728C100.304 87.784 98.7442 88.312 96.9522 88.312C95.2402 88.312 93.8482 87.872 92.7762 86.992C91.7202 86.096 91.1922 84.896 91.1922 83.392C91.1922 82.368 91.4482 81.44 91.9602 80.608C92.4722 79.76 93.2002 79.08 94.1442 78.568C93.5042 77.688 93.1842 76.712 93.1842 75.64C93.1842 74.232 93.6722 73.088 94.6482 72.208C95.6242 71.328 96.8402 70.888 98.2962 70.888C99.4642 70.888 100.512 71.2 101.44 71.824C102.368 72.432 103.048 73.288 103.48 74.392L101.128 75.736C100.904 75.064 100.544 74.536 100.048 74.152C99.5522 73.768 98.9762 73.576 98.3202 73.576C97.6322 73.576 97.0642 73.776 96.6162 74.176C96.1682 74.576 95.9442 75.088 95.9442 75.712C95.9442 76.048 96.0162 76.384 96.1602 76.72C96.3682 77.216 96.7762 77.776 97.3842 78.4L101.464 82.816C101.864 82 102.152 81.024 102.328 79.888L104.68 81.232C104.392 82.576 103.928 83.76 103.288 84.784ZM97.0962 85.744C98.1682 85.744 99.0962 85.448 99.8802 84.856L95.7522 80.416C94.5682 81.024 93.9762 81.944 93.9762 83.176C93.9762 83.96 94.2482 84.584 94.7922 85.048C95.3362 85.512 96.1042 85.744 97.0962 85.744ZM107.703 71.2H114.303C116.607 71.2 118.519 72.008 120.039 73.624C121.575 75.24 122.343 77.232 122.343 79.6C122.343 81.952 121.575 83.944 120.039 85.576C118.519 87.192 116.607 88 114.303 88H107.703V71.2ZM110.463 85.36H114.303C115.887 85.36 117.175 84.816 118.167 83.728C119.175 82.64 119.679 81.264 119.679 79.6C119.679 77.936 119.175 76.56 118.167 75.472C117.175 74.384 115.887 73.84 114.303 73.84H110.463V85.36Z" fill="white"/>
<rect x="144" y="66" width="85" height="31" rx="12" fill="#9E00FF"/>
<path d="M169.296 76.6H171V85H169.356V79.552L166.992 83.452H166.8L164.436 79.564V85H162.78V76.6H164.484L166.896 80.572L169.296 76.6ZM177.605 84.256C176.997 84.864 176.245 85.168 175.349 85.168C174.453 85.168 173.701 84.864 173.093 84.256C172.485 83.648 172.181 82.896 172.181 82C172.181 81.112 172.485 80.364 173.093 79.756C173.709 79.14 174.461 78.832 175.349 78.832C176.237 78.832 176.989 79.14 177.605 79.756C178.221 80.372 178.529 81.12 178.529 82C178.529 82.888 178.221 83.64 177.605 84.256ZM174.185 83.188C174.497 83.5 174.885 83.656 175.349 83.656C175.813 83.656 176.201 83.5 176.513 83.188C176.825 82.876 176.981 82.48 176.981 82C176.981 81.52 176.825 81.124 176.513 80.812C176.201 80.5 175.813 80.344 175.349 80.344C174.885 80.344 174.497 80.5 174.185 80.812C173.881 81.132 173.729 81.528 173.729 82C173.729 82.472 173.881 82.868 174.185 83.188ZM182.954 78.832C183.618 78.832 184.158 79.052 184.574 79.492C185.006 79.94 185.222 80.548 185.222 81.316V85H183.674V81.508C183.674 81.116 183.566 80.812 183.35 80.596C183.142 80.38 182.854 80.272 182.486 80.272C182.078 80.272 181.754 80.4 181.514 80.656C181.282 80.904 181.166 81.272 181.166 81.76V85H179.618V79H181.166V79.672C181.534 79.112 182.13 78.832 182.954 78.832ZM189.976 79V80.488H188.62V82.984C188.62 83.192 188.672 83.344 188.776 83.44C188.88 83.536 189.032 83.592 189.232 83.608C189.432 83.616 189.68 83.612 189.976 83.596V85C188.928 85.12 188.18 85.024 187.732 84.712C187.292 84.392 187.072 83.816 187.072 82.984V80.488H186.028V79H187.072V77.788L188.62 77.32V79H189.976ZM194.403 78.832C195.067 78.832 195.607 79.052 196.023 79.492C196.455 79.94 196.671 80.548 196.671 81.316V85H195.123V81.508C195.123 81.116 195.015 80.812 194.799 80.596C194.591 80.38 194.303 80.272 193.935 80.272C193.527 80.272 193.203 80.4 192.963 80.656C192.731 80.904 192.615 81.272 192.615 81.76V85H191.067V76.6H192.615V79.672C192.983 79.112 193.579 78.832 194.403 78.832ZM201.221 76.432C201.741 76.432 202.421 76.516 203.261 76.684V85H201.713V77.8C201.641 77.792 201.477 77.788 201.221 77.788C200.373 77.788 199.949 78.172 199.949 78.94V79H200.945V80.488H199.949V85H198.401V80.488H197.537V79H198.401V78.94C198.401 77.268 199.341 76.432 201.221 76.432ZM207.253 83.032L208.585 79H210.241L208.057 85C207.745 85.864 207.329 86.488 206.809 86.872C206.297 87.264 205.657 87.44 204.889 87.4V85.96C205.297 85.968 205.625 85.88 205.873 85.696C206.121 85.512 206.317 85.216 206.461 84.808L204.001 79H205.693L207.253 83.032Z" fill="white"/>
<rect x="325" y="42" width="305" height="79" rx="18" fill="#1A1A1A"/>
<path d="M412.272 88.312C410.656 88.312 409.28 87.952 408.144 87.232C407.024 86.496 406.24 85.48 405.792 84.184L408.168 82.792C408.84 84.68 410.232 85.624 412.344 85.624C413.368 85.624 414.144 85.424 414.672 85.024C415.2 84.624 415.464 84.088 415.464 83.416C415.464 82.744 415.184 82.224 414.624 81.856C414.064 81.488 413.072 81.088 411.648 80.656C410.192 80.224 409.016 79.712 408.12 79.12C407.032 78.352 406.488 77.224 406.488 75.736C406.488 74.248 407.016 73.072 408.072 72.208C409.112 71.328 410.384 70.888 411.888 70.888C413.216 70.888 414.384 71.216 415.392 71.872C416.416 72.512 417.2 73.416 417.744 74.584L415.416 75.928C414.712 74.36 413.536 73.576 411.888 73.576C411.088 73.576 410.448 73.768 409.968 74.152C409.488 74.52 409.248 75.024 409.248 75.664C409.248 76.288 409.488 76.784 409.968 77.152C410.448 77.504 411.336 77.88 412.632 78.28C413.432 78.552 413.896 78.712 414.024 78.76C414.232 78.824 414.648 78.984 415.272 79.24C415.784 79.448 416.192 79.672 416.496 79.912C417.744 80.888 418.32 82.04 418.224 83.368C418.224 84.888 417.672 86.096 416.568 86.992C415.496 87.872 414.064 88.312 412.272 88.312ZM430.266 77.704V76H432.858V88H430.266V86.272C429.29 87.632 427.89 88.312 426.066 88.312C424.418 88.312 423.01 87.704 421.842 86.488C420.674 85.272 420.09 83.776 420.09 82C420.09 80.224 420.674 78.728 421.842 77.512C423.01 76.296 424.418 75.688 426.066 75.688C427.89 75.688 429.29 76.36 430.266 77.704ZM423.762 84.76C424.482 85.48 425.386 85.84 426.474 85.84C427.562 85.84 428.466 85.48 429.186 84.76C429.906 84.024 430.266 83.104 430.266 82C430.266 80.896 429.906 79.984 429.186 79.264C428.466 78.528 427.562 78.16 426.474 78.16C425.386 78.16 424.482 78.528 423.762 79.264C423.042 79.984 422.682 80.896 422.682 82C422.682 83.088 423.042 84.008 423.762 84.76ZM438.471 88H435.879V70.48H438.471V88ZM453.073 83.104H443.521C443.713 84 444.145 84.696 444.817 85.192C445.505 85.688 446.353 85.936 447.361 85.936C448.721 85.936 449.753 85.44 450.457 84.448L452.593 85.696C451.425 87.44 449.673 88.312 447.337 88.312C445.401 88.312 443.825 87.72 442.609 86.536C441.409 85.336 440.809 83.824 440.809 82C440.809 80.224 441.401 78.728 442.585 77.512C443.753 76.296 445.273 75.688 447.145 75.688C448.889 75.688 450.329 76.304 451.465 77.536C452.601 78.768 453.169 80.264 453.169 82.024C453.169 82.344 453.137 82.704 453.073 83.104ZM443.497 80.992H450.553C450.377 80.048 449.977 79.32 449.353 78.808C448.745 78.296 448.001 78.04 447.121 78.04C446.161 78.04 445.361 78.304 444.721 78.832C444.081 79.36 443.673 80.08 443.497 80.992ZM457.309 79.312C457.309 79.68 457.501 79.984 457.885 80.224C458.269 80.448 458.829 80.664 459.565 80.872C460.125 81 460.613 81.136 461.029 81.28C461.445 81.424 461.885 81.64 462.349 81.928C462.813 82.2 463.165 82.568 463.405 83.032C463.661 83.48 463.781 84.008 463.765 84.616C463.765 85.768 463.317 86.672 462.421 87.328C461.525 87.984 460.413 88.312 459.085 88.312C457.901 88.312 456.885 88.064 456.037 87.568C455.189 87.072 454.573 86.384 454.189 85.504L456.421 84.208C456.821 85.36 457.709 85.936 459.085 85.936C460.445 85.936 461.125 85.488 461.125 84.592C461.125 83.936 460.365 83.424 458.845 83.056C458.269 82.912 457.781 82.768 457.381 82.624C456.997 82.48 456.565 82.272 456.085 82C455.621 81.728 455.261 81.368 455.005 80.92C454.765 80.472 454.653 79.952 454.669 79.36C454.669 78.256 455.085 77.368 455.917 76.696C456.765 76.024 457.813 75.688 459.061 75.688C460.053 75.688 460.933 75.912 461.701 76.36C462.485 76.792 463.085 77.4 463.501 78.184L461.317 79.408C460.917 78.496 460.165 78.04 459.061 78.04C458.549 78.04 458.125 78.152 457.789 78.376C457.469 78.6 457.309 78.912 457.309 79.312Z" fill="white"/>
<rect x="485" y="66" width="65" height="31" rx="12" fill="#FF0000"/>
<path d="M503.78 76.6H507.116C508.268 76.6 509.228 77.004 509.996 77.812C510.772 78.612 511.16 79.608 511.16 80.8C511.16 81.992 510.772 82.988 509.996 83.788C509.228 84.596 508.268 85 507.116 85H503.78V76.6ZM505.436 83.416H507.116C507.844 83.416 508.436 83.176 508.892 82.696C509.348 82.2 509.576 81.568 509.576 80.8C509.576 80.024 509.348 79.396 508.892 78.916C508.436 78.428 507.844 78.184 507.116 78.184H505.436V83.416ZM516.823 79.708V79H518.371V85H516.823V84.292C516.359 84.876 515.707 85.168 514.867 85.168C514.067 85.168 513.379 84.864 512.803 84.256C512.235 83.64 511.951 82.888 511.951 82C511.951 81.12 512.235 80.372 512.803 79.756C513.379 79.14 514.067 78.832 514.867 78.832C515.707 78.832 516.359 79.124 516.823 79.708ZM513.967 83.224C514.279 83.536 514.675 83.692 515.155 83.692C515.635 83.692 516.031 83.536 516.343 83.224C516.663 82.904 516.823 82.496 516.823 82C516.823 81.504 516.663 81.1 516.343 80.788C516.031 80.468 515.635 80.308 515.155 80.308C514.675 80.308 514.279 80.468 513.967 80.788C513.655 81.1 513.499 81.504 513.499 82C513.499 82.496 513.655 82.904 513.967 83.224ZM520.542 78.28C520.286 78.28 520.062 78.188 519.87 78.004C519.686 77.812 519.594 77.588 519.594 77.332C519.594 77.076 519.686 76.852 519.87 76.66C520.062 76.468 520.286 76.372 520.542 76.372C520.806 76.372 521.03 76.468 521.214 76.66C521.406 76.852 521.502 77.076 521.502 77.332C521.502 77.588 521.406 77.812 521.214 78.004C521.03 78.188 520.806 78.28 520.542 78.28ZM521.322 85H519.774V79H521.322V85ZM524.287 85H522.739V76.24H524.287V85ZM528.284 83.032L529.616 79H531.272L529.088 85C528.776 85.864 528.36 86.488 527.84 86.872C527.328 87.264 526.688 87.44 525.92 87.4V85.96C526.328 85.968 526.656 85.88 526.904 85.696C527.152 85.512 527.348 85.216 527.492 84.808L525.032 79H526.724L528.284 83.032Z" fill="white"/>
<rect x="176.5" y="161" width="277" height="78" rx="18" fill="#1371FF"/>
<path d="M252.312 190.2H264.672V193.368H260.136V207H256.824V193.368H252.312V190.2ZM273.793 207H270.025L265.321 190.2H268.801L272.017 202.656L275.521 190.2H278.353L281.881 202.656L285.097 190.2H288.577L283.873 207H280.105L276.937 195.912L273.793 207ZM290.498 207V190.2H293.81V207H290.498ZM306.639 200.448V190.2H309.951V207H307.431L300.231 196.728V207H296.919V190.2H299.439L306.639 200.448ZM316.38 190.2V203.832H322.788V207H313.068V190.2H316.38ZM324.669 207V190.2H327.981V207H324.669ZM339.155 197.976H347.579V199.272C347.579 201.672 346.811 203.616 345.275 205.104C343.739 206.592 341.755 207.336 339.323 207.336C336.731 207.336 334.579 206.496 332.867 204.816C331.171 203.12 330.323 201.056 330.323 198.624C330.323 196.176 331.163 194.104 332.843 192.408C334.539 190.712 336.635 189.864 339.131 189.864C340.683 189.864 342.107 190.216 343.403 190.92C344.699 191.624 345.715 192.576 346.451 193.776L343.619 195.408C343.219 194.72 342.611 194.16 341.795 193.728C340.979 193.296 340.083 193.08 339.107 193.08C337.491 193.08 336.171 193.608 335.147 194.664C334.123 195.688 333.611 197.008 333.611 198.624C333.611 200.208 334.131 201.52 335.171 202.56C336.211 203.584 337.603 204.096 339.347 204.096C340.611 204.096 341.667 203.816 342.515 203.256C343.363 202.696 343.939 201.912 344.243 200.904H339.155V197.976ZM359.487 196.872V190.2H362.775V207H359.487V200.04H353.247V207H349.935V190.2H353.247V196.872H359.487ZM364.648 190.2H377.008V193.368H372.472V207H369.16V193.368H364.648V190.2Z" fill="white"/>
<rect y="279" width="306" height="79" rx="18" fill="#1A1A1A"/>
<path d="M63.308 308.2H66.26V325H63.5V313.024L58.388 321.472H58.052L52.94 313V325H50.18V308.2H53.156L58.22 316.6L63.308 308.2ZM78.9457 314.704V313H81.5377V325H78.9457V323.272C77.9697 324.632 76.5697 325.312 74.7457 325.312C73.0977 325.312 71.6897 324.704 70.5217 323.488C69.3537 322.272 68.7697 320.776 68.7697 319C68.7697 317.224 69.3537 315.728 70.5217 314.512C71.6897 313.296 73.0977 312.688 74.7457 312.688C76.5697 312.688 77.9697 313.36 78.9457 314.704ZM72.4417 321.76C73.1617 322.48 74.0657 322.84 75.1537 322.84C76.2417 322.84 77.1457 322.48 77.8657 321.76C78.5857 321.024 78.9457 320.104 78.9457 319C78.9457 317.896 78.5857 316.984 77.8657 316.264C77.1457 315.528 76.2417 315.16 75.1537 315.16C74.0657 315.16 73.1617 315.528 72.4417 316.264C71.7217 316.984 71.3617 317.896 71.3617 319C71.3617 320.088 71.7217 321.008 72.4417 321.76ZM87.1509 313V315.016C87.8069 313.528 89.0389 312.784 90.8469 312.784V315.592C89.8709 315.528 89.0069 315.768 88.2549 316.312C87.5189 316.84 87.1509 317.72 87.1509 318.952V325H84.5589V313H87.1509ZM97.898 318.88L103.37 325H100.274L95.354 319.456V325H92.762V308.2H95.354V318.304L100.01 313H103.178L97.898 318.88ZM115.745 320.104H106.193C106.385 321 106.817 321.696 107.489 322.192C108.177 322.688 109.025 322.936 110.033 322.936C111.393 322.936 112.425 322.44 113.129 321.448L115.265 322.696C114.097 324.44 112.345 325.312 110.009 325.312C108.073 325.312 106.497 324.72 105.281 323.536C104.081 322.336 103.481 320.824 103.481 319C103.481 317.224 104.073 315.728 105.257 314.512C106.425 313.296 107.945 312.688 109.817 312.688C111.561 312.688 113.001 313.304 114.137 314.536C115.273 315.768 115.841 317.264 115.841 319.024C115.841 319.344 115.809 319.704 115.745 320.104ZM106.169 317.992H113.225C113.049 317.048 112.649 316.32 112.025 315.808C111.417 315.296 110.673 315.04 109.793 315.04C108.833 315.04 108.033 315.304 107.393 315.832C106.753 316.36 106.345 317.08 106.169 317.992ZM124.442 313V315.496H121.466V321.256C121.466 321.752 121.578 322.112 121.802 322.336C122.026 322.544 122.354 322.664 122.786 322.696C123.234 322.712 123.786 322.704 124.442 322.672V325C122.458 325.24 121.034 325.072 120.17 324.496C119.306 323.904 118.874 322.824 118.874 321.256V315.496H116.666V313H118.874V310.408L121.466 309.64V313H124.442ZM129.241 310.72C128.921 311.04 128.537 311.2 128.089 311.2C127.641 311.2 127.249 311.04 126.913 310.72C126.593 310.384 126.433 309.992 126.433 309.544C126.433 309.096 126.593 308.712 126.913 308.392C127.233 308.056 127.625 307.888 128.089 307.888C128.553 307.888 128.945 308.056 129.265 308.392C129.585 308.712 129.745 309.096 129.745 309.544C129.745 309.992 129.577 310.384 129.241 310.72ZM129.385 325H126.793V313H129.385V325ZM138.707 312.688C140.099 312.688 141.211 313.136 142.043 314.032C142.891 314.912 143.315 316.112 143.315 317.632V325H140.723V317.896C140.723 317 140.483 316.312 140.003 315.832C139.523 315.352 138.867 315.112 138.035 315.112C137.091 315.112 136.347 315.408 135.803 316C135.259 316.576 134.987 317.432 134.987 318.568V325H132.395V313H134.987V314.536C135.787 313.304 137.027 312.688 138.707 312.688ZM155.658 314.776V313H158.202V324.448C158.202 326.272 157.602 327.672 156.402 328.648C155.218 329.624 153.762 330.112 152.034 330.112C149.266 330.112 147.37 329.144 146.346 327.208L148.578 325.912C149.202 327.144 150.37 327.76 152.082 327.76C153.202 327.76 154.074 327.464 154.698 326.872C155.338 326.296 155.658 325.488 155.658 324.448V322.984C154.682 324.376 153.29 325.072 151.482 325.072C149.802 325.072 148.37 324.472 147.186 323.272C146.018 322.056 145.434 320.592 145.434 318.88C145.434 317.152 146.018 315.696 147.186 314.512C148.354 313.296 149.786 312.688 151.482 312.688C153.29 312.688 154.682 313.384 155.658 314.776ZM149.106 321.568C149.842 322.288 150.754 322.648 151.842 322.648C152.93 322.648 153.834 322.288 154.554 321.568C155.29 320.848 155.658 319.952 155.658 318.88C155.658 317.808 155.29 316.912 154.554 316.192C153.834 315.472 152.93 315.112 151.842 315.112C150.754 315.112 149.842 315.472 149.106 316.192C148.386 316.912 148.026 317.808 148.026 318.88C148.026 319.952 148.386 320.848 149.106 321.568Z" fill="white"/>
<rect x="180.5" y="303" width="77" height="31" rx="12" fill="#00FF47"/>
<path d="M202.916 322H201.032L198.68 313.6H200.42L202.028 319.828L203.78 313.6H205.196L206.96 319.828L208.568 313.6H210.308L207.956 322H206.072L204.488 316.456L202.916 322ZM216.313 319.636H211.789C211.989 320.388 212.553 320.764 213.481 320.764C214.073 320.764 214.521 320.564 214.825 320.164L216.073 320.884C215.481 321.74 214.609 322.168 213.457 322.168C212.465 322.168 211.669 321.868 211.069 321.268C210.469 320.668 210.169 319.912 210.169 319C210.169 318.104 210.465 317.352 211.057 316.744C211.641 316.136 212.401 315.832 213.337 315.832C214.225 315.832 214.949 316.136 215.509 316.744C216.085 317.352 216.373 318.104 216.373 319C216.373 319.168 216.353 319.38 216.313 319.636ZM211.765 318.436H214.825C214.737 318.044 214.557 317.744 214.285 317.536C214.021 317.328 213.705 317.224 213.337 317.224C212.921 317.224 212.577 317.332 212.305 317.548C212.033 317.756 211.853 318.052 211.765 318.436ZM223.239 319.636H218.715C218.915 320.388 219.479 320.764 220.407 320.764C220.999 320.764 221.447 320.564 221.751 320.164L222.999 320.884C222.407 321.74 221.535 322.168 220.383 322.168C219.391 322.168 218.595 321.868 217.995 321.268C217.395 320.668 217.095 319.912 217.095 319C217.095 318.104 217.391 317.352 217.983 316.744C218.567 316.136 219.327 315.832 220.263 315.832C221.151 315.832 221.875 316.136 222.435 316.744C223.011 317.352 223.299 318.104 223.299 319C223.299 319.168 223.279 319.38 223.239 319.636ZM218.691 318.436H221.751C221.663 318.044 221.483 317.744 221.211 317.536C220.947 317.328 220.631 317.224 220.263 317.224C219.847 317.224 219.503 317.332 219.231 317.548C218.959 317.756 218.779 318.052 218.691 318.436ZM227.428 318.964L229.912 322H228.112L225.928 319.276V322H224.38V313.6H225.928V318.64L227.992 316H229.84L227.428 318.964ZM232.233 322H230.685V313.24H232.233V322ZM236.229 320.032L237.561 316H239.217L237.033 322C236.721 322.864 236.305 323.488 235.785 323.872C235.273 324.264 234.633 324.44 233.865 324.4V322.96C234.273 322.968 234.601 322.88 234.849 322.696C235.097 322.512 235.293 322.216 235.437 321.808L232.977 316H234.669L236.229 320.032Z" fill="black"/>
<rect x="324" y="279" width="306" height="79" rx="18" fill="#1A1A1A"/>
<path d="M383.22 322.792C381.54 324.472 379.484 325.312 377.052 325.312C374.62 325.312 372.556 324.472 370.86 322.792C369.18 321.096 368.34 319.032 368.34 316.6C368.34 314.168 369.18 312.112 370.86 310.432C372.556 308.736 374.62 307.888 377.052 307.888C379.484 307.888 381.54 308.736 383.22 310.432C384.916 312.112 385.764 314.168 385.764 316.6C385.764 319.032 384.916 321.096 383.22 322.792ZM372.804 320.92C373.972 322.056 375.388 322.624 377.052 322.624C378.732 322.624 380.14 322.056 381.276 320.92C382.428 319.768 383.004 318.328 383.004 316.6C383.004 314.872 382.428 313.44 381.276 312.304C380.14 311.152 378.732 310.576 377.052 310.576C375.372 310.576 373.956 311.152 372.804 312.304C371.668 313.44 371.1 314.872 371.1 316.6C371.1 318.312 371.668 319.752 372.804 320.92ZM394.906 312.688C396.538 312.688 397.946 313.304 399.13 314.536C400.298 315.752 400.882 317.24 400.882 319C400.882 320.776 400.298 322.272 399.13 323.488C397.962 324.704 396.554 325.312 394.906 325.312C393.098 325.312 391.698 324.64 390.706 323.296V329.8H388.114V313H390.706V314.728C391.682 313.368 393.082 312.688 394.906 312.688ZM391.786 321.76C392.506 322.48 393.41 322.84 394.498 322.84C395.586 322.84 396.49 322.48 397.21 321.76C397.93 321.024 398.29 320.104 398.29 319C398.29 317.896 397.93 316.984 397.21 316.264C396.49 315.528 395.586 315.16 394.498 315.16C393.41 315.16 392.506 315.528 391.786 316.264C391.066 316.984 390.706 317.896 390.706 319C390.706 320.088 391.066 321.008 391.786 321.76ZM414.823 320.104H405.271C405.463 321 405.895 321.696 406.567 322.192C407.255 322.688 408.103 322.936 409.111 322.936C410.471 322.936 411.503 322.44 412.207 321.448L414.343 322.696C413.175 324.44 411.423 325.312 409.087 325.312C407.151 325.312 405.575 324.72 404.359 323.536C403.159 322.336 402.559 320.824 402.559 319C402.559 317.224 403.151 315.728 404.335 314.512C405.503 313.296 407.023 312.688 408.895 312.688C410.639 312.688 412.079 313.304 413.215 314.536C414.351 315.768 414.919 317.264 414.919 319.024C414.919 319.344 414.887 319.704 414.823 320.104ZM405.247 317.992H412.303C412.127 317.048 411.727 316.32 411.103 315.808C410.495 315.296 409.751 315.04 408.871 315.04C407.911 315.04 407.111 315.304 406.471 315.832C405.831 316.36 405.423 317.08 405.247 317.992ZM419.792 313V315.016C420.448 313.528 421.68 312.784 423.488 312.784V315.592C422.512 315.528 421.648 315.768 420.896 316.312C420.16 316.84 419.792 317.72 419.792 318.952V325H417.2V313H419.792ZM434.344 314.704V313H436.936V325H434.344V323.272C433.368 324.632 431.968 325.312 430.144 325.312C428.496 325.312 427.088 324.704 425.92 323.488C424.752 322.272 424.168 320.776 424.168 319C424.168 317.224 424.752 315.728 425.92 314.512C427.088 313.296 428.496 312.688 430.144 312.688C431.968 312.688 433.368 313.36 434.344 314.704ZM427.84 321.76C428.56 322.48 429.464 322.84 430.552 322.84C431.64 322.84 432.544 322.48 433.264 321.76C433.984 321.024 434.344 320.104 434.344 319C434.344 317.896 433.984 316.984 433.264 316.264C432.544 315.528 431.64 315.16 430.552 315.16C429.464 315.16 428.56 315.528 427.84 316.264C427.12 316.984 426.76 317.896 426.76 319C426.76 320.088 427.12 321.008 427.84 321.76ZM446.653 313V315.496H443.677V321.256C443.677 321.752 443.789 322.112 444.013 322.336C444.237 322.544 444.565 322.664 444.997 322.696C445.445 322.712 445.997 322.704 446.653 322.672V325C444.669 325.24 443.245 325.072 442.381 324.496C441.517 323.904 441.085 322.824 441.085 321.256V315.496H438.877V313H441.085V310.408L443.677 309.64V313H446.653ZM451.452 310.72C451.132 311.04 450.748 311.2 450.3 311.2C449.852 311.2 449.46 311.04 449.124 310.72C448.804 310.384 448.644 309.992 448.644 309.544C448.644 309.096 448.804 308.712 449.124 308.392C449.444 308.056 449.836 307.888 450.3 307.888C450.764 307.888 451.156 308.056 451.476 308.392C451.796 308.712 451.956 309.096 451.956 309.544C451.956 309.992 451.788 310.384 451.452 310.72ZM451.596 325H449.004V313H451.596V325ZM464.758 323.488C463.542 324.704 462.046 325.312 460.27 325.312C458.494 325.312 456.998 324.704 455.782 323.488C454.55 322.256 453.934 320.76 453.934 319C453.934 317.24 454.55 315.744 455.782 314.512C456.998 313.296 458.494 312.688 460.27 312.688C462.046 312.688 463.542 313.296 464.758 314.512C465.99 315.744 466.606 317.24 466.606 319C466.606 320.76 465.99 322.256 464.758 323.488ZM456.526 319C456.526 320.088 456.886 320.992 457.606 321.712C458.326 322.432 459.214 322.792 460.27 322.792C461.326 322.792 462.214 322.432 462.934 321.712C463.654 320.992 464.014 320.088 464.014 319C464.014 317.912 463.654 317.008 462.934 316.288C462.214 315.568 461.326 315.208 460.27 315.208C459.214 315.208 458.326 315.568 457.606 316.288C456.886 317.008 456.526 317.912 456.526 319ZM475.262 312.688C476.654 312.688 477.766 313.136 478.598 314.032C479.446 314.912 479.87 316.112 479.87 317.632V325H477.278V317.896C477.278 317 477.038 316.312 476.558 315.832C476.078 315.352 475.422 315.112 474.59 315.112C473.646 315.112 472.902 315.408 472.358 316C471.814 316.576 471.542 317.432 471.542 318.568V325H468.95V313H471.542V314.536C472.342 313.304 473.582 312.688 475.262 312.688Z" fill="white"/>
<rect x="501.5" y="303" width="85" height="31" rx="12" fill="#9E00FF"/>
<path d="M526.796 313.6H528.5V322H526.856V316.552L524.492 320.452H524.3L521.936 316.564V322H520.28V313.6H521.984L524.396 317.572L526.796 313.6ZM535.105 321.256C534.497 321.864 533.745 322.168 532.849 322.168C531.953 322.168 531.201 321.864 530.593 321.256C529.985 320.648 529.681 319.896 529.681 319C529.681 318.112 529.985 317.364 530.593 316.756C531.209 316.14 531.961 315.832 532.849 315.832C533.737 315.832 534.489 316.14 535.105 316.756C535.721 317.372 536.029 318.12 536.029 319C536.029 319.888 535.721 320.64 535.105 321.256ZM531.685 320.188C531.997 320.5 532.385 320.656 532.849 320.656C533.313 320.656 533.701 320.5 534.013 320.188C534.325 319.876 534.481 319.48 534.481 319C534.481 318.52 534.325 318.124 534.013 317.812C533.701 317.5 533.313 317.344 532.849 317.344C532.385 317.344 531.997 317.5 531.685 317.812C531.381 318.132 531.229 318.528 531.229 319C531.229 319.472 531.381 319.868 531.685 320.188ZM540.454 315.832C541.118 315.832 541.658 316.052 542.074 316.492C542.506 316.94 542.722 317.548 542.722 318.316V322H541.174V318.508C541.174 318.116 541.066 317.812 540.85 317.596C540.642 317.38 540.354 317.272 539.986 317.272C539.578 317.272 539.254 317.4 539.014 317.656C538.782 317.904 538.666 318.272 538.666 318.76V322H537.118V316H538.666V316.672C539.034 316.112 539.63 315.832 540.454 315.832ZM547.476 316V317.488H546.12V319.984C546.12 320.192 546.172 320.344 546.276 320.44C546.38 320.536 546.532 320.592 546.732 320.608C546.932 320.616 547.18 320.612 547.476 320.596V322C546.428 322.12 545.68 322.024 545.232 321.712C544.792 321.392 544.572 320.816 544.572 319.984V317.488H543.528V316H544.572V314.788L546.12 314.32V316H547.476ZM551.903 315.832C552.567 315.832 553.107 316.052 553.523 316.492C553.955 316.94 554.171 317.548 554.171 318.316V322H552.623V318.508C552.623 318.116 552.515 317.812 552.299 317.596C552.091 317.38 551.803 317.272 551.435 317.272C551.027 317.272 550.703 317.4 550.463 317.656C550.231 317.904 550.115 318.272 550.115 318.76V322H548.567V313.6H550.115V316.672C550.483 316.112 551.079 315.832 551.903 315.832ZM558.721 313.432C559.241 313.432 559.921 313.516 560.761 313.684V322H559.213V314.8C559.141 314.792 558.977 314.788 558.721 314.788C557.873 314.788 557.449 315.172 557.449 315.94V316H558.445V317.488H557.449V322H555.901V317.488H555.037V316H555.901V315.94C555.901 314.268 556.841 313.432 558.721 313.432ZM564.753 320.032L566.085 316H567.741L565.557 322C565.245 322.864 564.829 323.488 564.309 323.872C563.797 324.264 563.157 324.44 562.389 324.4V322.96C562.797 322.968 563.125 322.88 563.373 322.696C563.621 322.512 563.817 322.216 563.961 321.808L561.501 316H563.193L564.753 320.032Z" fill="white"/>
</svg>
