<svg width="629" height="500" viewBox="0 0 629 500" fill="none" xmlns="http://www.w3.org/2000/svg">
<rect width="629" height="500" rx="24" fill="#161616"/>
<circle cx="44" cy="71" r="12" fill="#CC00FF"/>
<path d="M72.572 52.2H95.232V58.008H86.916V83H80.844V58.008H72.572V52.2ZM111.954 83H105.046L96.4217 52.2H102.802L108.698 75.036L115.122 52.2H120.314L126.782 75.036L132.678 52.2H139.058L130.434 83H123.526L117.718 62.672L111.954 83ZM142.579 83V52.2H148.651V83H142.579ZM172.172 70.988V52.2H178.244V83H173.624L160.424 64.168V83H154.352V52.2H158.972L172.172 70.988ZM190.03 52.2V77.192H201.778V83H183.958V52.2H190.03ZM205.227 83V52.2H211.299V83H205.227ZM231.785 66.456H247.229V68.832C247.229 73.232 245.821 76.796 243.005 79.524C240.189 82.252 236.551 83.616 232.093 83.616C227.341 83.616 223.395 82.076 220.257 78.996C217.147 75.8867 215.593 72.1027 215.593 67.644C215.593 63.156 217.133 59.3573 220.213 56.248C223.322 53.1387 227.165 51.584 231.741 51.584C234.586 51.584 237.197 52.2293 239.573 53.52C241.949 54.8107 243.811 56.556 245.161 58.756L239.969 61.748C239.235 60.4867 238.121 59.46 236.625 58.668C235.129 57.876 233.486 57.48 231.697 57.48C228.734 57.48 226.314 58.448 224.437 60.384C222.559 62.2613 221.621 64.6813 221.621 67.644C221.621 70.548 222.574 72.9533 224.481 74.86C226.387 76.7373 228.939 77.676 232.137 77.676C234.454 77.676 236.39 77.1627 237.945 76.136C239.499 75.1093 240.555 73.672 241.113 71.824H231.785V66.456ZM269.06 64.432V52.2H275.088V83H269.06V70.24H257.62V83H251.548V52.2H257.62V64.432H269.06ZM278.521 52.2H301.181V58.008H292.865V83H286.793V58.008H278.521V52.2Z" fill="white"/>
<path d="M39.956 114.116V113H42.224V121.568C42.224 122.948 41.762 124.01 40.838 124.754C39.926 125.486 38.822 125.852 37.526 125.852C35.486 125.852 34.064 125.12 33.26 123.656L35.24 122.522C35.684 123.362 36.47 123.782 37.598 123.782C38.33 123.782 38.906 123.59 39.326 123.206C39.746 122.822 39.956 122.276 39.956 121.568V120.596C39.272 121.508 38.312 121.964 37.076 121.964C35.804 121.964 34.736 121.52 33.872 120.632C33.02 119.72 32.594 118.628 32.594 117.356C32.594 116.084 33.026 114.998 33.89 114.098C34.754 113.198 35.816 112.748 37.076 112.748C38.312 112.748 39.272 113.204 39.956 114.116ZM39.236 119.138C39.716 118.67 39.956 118.076 39.956 117.356C39.956 116.636 39.716 116.054 39.236 115.61C38.768 115.142 38.168 114.908 37.436 114.908C36.716 114.908 36.11 115.142 35.618 115.61C35.15 116.054 34.916 116.636 34.916 117.356C34.916 118.076 35.15 118.67 35.618 119.138C36.098 119.594 36.704 119.822 37.436 119.822C38.168 119.822 38.768 119.594 39.236 119.138ZM46.6516 113V114.548C46.8556 113.984 47.2036 113.558 47.6956 113.27C48.1876 112.97 48.7516 112.82 49.3876 112.82V115.412C48.6796 115.316 48.0436 115.46 47.4796 115.844C46.9276 116.216 46.6516 116.834 46.6516 117.698V122H44.3296V113H46.6516ZM58.0796 120.884C57.1676 121.796 56.0396 122.252 54.6956 122.252C53.3516 122.252 52.2236 121.796 51.3116 120.884C50.3996 119.972 49.9436 118.844 49.9436 117.5C49.9436 116.168 50.3996 115.046 51.3116 114.134C52.2356 113.21 53.3636 112.748 54.6956 112.748C56.0276 112.748 57.1556 113.21 58.0796 114.134C59.0036 115.058 59.4656 116.18 59.4656 117.5C59.4656 118.832 59.0036 119.96 58.0796 120.884ZM52.9496 119.282C53.4176 119.75 53.9996 119.984 54.6956 119.984C55.3916 119.984 55.9736 119.75 56.4416 119.282C56.9096 118.814 57.1436 118.22 57.1436 117.5C57.1436 116.78 56.9096 116.186 56.4416 115.718C55.9736 115.25 55.3916 115.016 54.6956 115.016C53.9996 115.016 53.4176 115.25 52.9496 115.718C52.4936 116.198 52.2656 116.792 52.2656 117.5C52.2656 118.208 52.4936 118.802 52.9496 119.282ZM69.3515 118.544L70.8815 113H73.3475L70.4855 122H68.2715L66.6155 116.546L64.9595 122H62.7455L59.8835 113H62.3495L63.8795 118.526L65.5175 113H67.7135L69.3515 118.544ZM79.7471 113V115.232H77.7131V118.976C77.7131 119.288 77.7911 119.516 77.9471 119.66C78.1031 119.804 78.3311 119.888 78.6311 119.912C78.9311 119.924 79.3031 119.918 79.7471 119.894V122C78.1751 122.18 77.0531 122.036 76.3811 121.568C75.7211 121.088 75.3911 120.224 75.3911 118.976V115.232H73.8251V113H75.3911V111.182L77.7131 110.48V113H79.7471ZM86.3883 112.748C87.3843 112.748 88.1943 113.078 88.8183 113.738C89.4663 114.41 89.7903 115.322 89.7903 116.474V122H87.4683V116.762C87.4683 116.174 87.3063 115.718 86.9823 115.394C86.6703 115.07 86.2383 114.908 85.6863 114.908C85.0743 114.908 84.5883 115.1 84.2283 115.484C83.8803 115.856 83.7063 116.408 83.7063 117.14V122H81.3843V109.4H83.7063V114.008C84.2583 113.168 85.1523 112.748 86.3883 112.748Z" fill="#979797"/>
<circle cx="426" cy="391" r="12" fill="#00FF47"/>
<path d="M471.468 403.616C466.863 403.616 463.035 402.076 459.984 398.996C456.963 395.945 455.452 392.147 455.452 387.6C455.452 383.024 456.963 379.225 459.984 376.204C463.035 373.124 466.863 371.584 471.468 371.584C474.255 371.584 476.821 372.244 479.168 373.564C481.544 374.855 483.392 376.615 484.712 378.844L479.476 381.88C478.713 380.501 477.628 379.431 476.22 378.668C474.812 377.876 473.228 377.48 471.468 377.48C468.476 377.48 466.056 378.419 464.208 380.296C462.389 382.203 461.48 384.637 461.48 387.6C461.48 390.533 462.389 392.953 464.208 394.86C466.056 396.737 468.476 397.676 471.468 397.676C473.228 397.676 474.812 397.295 476.22 396.532C477.657 395.74 478.743 394.669 479.476 393.32L484.712 396.356C483.392 398.585 481.544 400.36 479.168 401.68C476.821 402.971 474.255 403.616 471.468 403.616ZM494.514 372.2V397.192H506.262V403H488.442V372.2H494.514ZM509.712 403V372.2H515.784V403H509.712ZM527.557 390.284V397.192H540.537V403H521.485V372.2H540.317V378.008H527.557V384.564H539.217V390.284H527.557ZM562.637 390.988V372.2H568.709V403H564.089L550.889 384.168V403H544.817V372.2H549.437L562.637 390.988ZM572.135 372.2H594.794V378.008H586.479V403H580.407V378.008H572.135V372.2Z" fill="white"/>
<path d="M535.378 431.556C535.378 431.94 535.924 432.27 537.016 432.546C537.4 432.63 537.748 432.732 538.06 432.852C538.372 432.96 538.684 433.122 538.996 433.338C539.32 433.542 539.572 433.818 539.752 434.166C539.932 434.514 540.022 434.916 540.022 435.372C540.022 436.296 539.674 437.01 538.978 437.514C538.282 438.006 537.424 438.252 536.404 438.252C534.556 438.252 533.296 437.538 532.624 436.11L534.64 434.976C534.916 435.756 535.504 436.146 536.404 436.146C537.232 436.146 537.646 435.888 537.646 435.372C537.646 434.988 537.1 434.658 536.008 434.382C535.6 434.274 535.252 434.166 534.964 434.058C534.676 433.95 534.364 433.794 534.028 433.59C533.692 433.374 533.434 433.104 533.254 432.78C533.086 432.444 533.002 432.054 533.002 431.61C533.002 430.722 533.326 430.026 533.974 429.522C534.634 429.006 535.45 428.748 536.422 428.748C537.154 428.748 537.82 428.916 538.42 429.252C539.02 429.576 539.494 430.044 539.842 430.656L537.862 431.736C537.574 431.124 537.094 430.818 536.422 430.818C536.122 430.818 535.87 430.89 535.666 431.034C535.474 431.166 535.378 431.34 535.378 431.556ZM547.455 433.86V429H549.777V438H547.455V436.992C546.903 437.832 546.009 438.252 544.773 438.252C543.789 438.252 542.973 437.922 542.325 437.262C541.689 436.59 541.371 435.678 541.371 434.526V429H543.693V434.238C543.693 434.826 543.849 435.282 544.161 435.606C544.485 435.93 544.923 436.092 545.475 436.092C546.087 436.092 546.567 435.906 546.915 435.534C547.275 435.15 547.455 434.592 547.455 433.86ZM556.188 438.252C554.832 438.252 553.698 437.796 552.786 436.884C551.886 435.972 551.436 434.844 551.436 433.5C551.436 432.156 551.886 431.028 552.786 430.116C553.698 429.204 554.832 428.748 556.188 428.748C557.064 428.748 557.862 428.958 558.582 429.378C559.302 429.798 559.848 430.362 560.22 431.07L558.222 432.24C558.042 431.868 557.766 431.574 557.394 431.358C557.034 431.142 556.626 431.034 556.17 431.034C555.474 431.034 554.898 431.268 554.442 431.736C553.986 432.192 553.758 432.78 553.758 433.5C553.758 434.196 553.986 434.784 554.442 435.264C554.898 435.72 555.474 435.948 556.17 435.948C556.638 435.948 557.052 435.846 557.412 435.642C557.784 435.426 558.06 435.132 558.24 434.76L560.256 435.912C559.86 436.632 559.296 437.202 558.564 437.622C557.844 438.042 557.052 438.252 556.188 438.252ZM565.627 438.252C564.271 438.252 563.137 437.796 562.225 436.884C561.325 435.972 560.875 434.844 560.875 433.5C560.875 432.156 561.325 431.028 562.225 430.116C563.137 429.204 564.271 428.748 565.627 428.748C566.503 428.748 567.301 428.958 568.021 429.378C568.741 429.798 569.287 430.362 569.659 431.07L567.661 432.24C567.481 431.868 567.205 431.574 566.833 431.358C566.473 431.142 566.065 431.034 565.609 431.034C564.913 431.034 564.337 431.268 563.881 431.736C563.425 432.192 563.197 432.78 563.197 433.5C563.197 434.196 563.425 434.784 563.881 435.264C564.337 435.72 564.913 435.948 565.609 435.948C566.077 435.948 566.491 435.846 566.851 435.642C567.223 435.426 567.499 435.132 567.679 434.76L569.695 435.912C569.299 436.632 568.735 437.202 568.003 437.622C567.283 438.042 566.491 438.252 565.627 438.252ZM579.531 434.454H572.745C573.045 435.582 573.891 436.146 575.283 436.146C576.171 436.146 576.843 435.846 577.299 435.246L579.171 436.326C578.283 437.61 576.975 438.252 575.247 438.252C573.759 438.252 572.565 437.802 571.665 436.902C570.765 436.002 570.315 434.868 570.315 433.5C570.315 432.156 570.759 431.028 571.647 430.116C572.523 429.204 573.663 428.748 575.067 428.748C576.399 428.748 577.485 429.204 578.325 430.116C579.189 431.028 579.621 432.156 579.621 433.5C579.621 433.752 579.591 434.07 579.531 434.454ZM572.709 432.654H577.299C577.167 432.066 576.897 431.616 576.489 431.304C576.093 430.992 575.619 430.836 575.067 430.836C574.443 430.836 573.927 430.998 573.519 431.322C573.111 431.634 572.841 432.078 572.709 432.654ZM583.032 431.556C583.032 431.94 583.578 432.27 584.67 432.546C585.054 432.63 585.402 432.732 585.714 432.852C586.026 432.96 586.338 433.122 586.65 433.338C586.974 433.542 587.226 433.818 587.406 434.166C587.586 434.514 587.676 434.916 587.676 435.372C587.676 436.296 587.328 437.01 586.632 437.514C585.936 438.006 585.078 438.252 584.058 438.252C582.21 438.252 580.95 437.538 580.278 436.11L582.294 434.976C582.57 435.756 583.158 436.146 584.058 436.146C584.886 436.146 585.3 435.888 585.3 435.372C585.3 434.988 584.754 434.658 583.662 434.382C583.254 434.274 582.906 434.166 582.618 434.058C582.33 433.95 582.018 433.794 581.682 433.59C581.346 433.374 581.088 433.104 580.908 432.78C580.74 432.444 580.656 432.054 580.656 431.61C580.656 430.722 580.98 430.026 581.628 429.522C582.288 429.006 583.104 428.748 584.076 428.748C584.808 428.748 585.474 428.916 586.074 429.252C586.674 429.576 587.148 430.044 587.496 430.656L585.516 431.736C585.228 431.124 584.748 430.818 584.076 430.818C583.776 430.818 583.524 430.89 583.32 431.034C583.128 431.166 583.032 431.34 583.032 431.556ZM590.837 431.556C590.837 431.94 591.383 432.27 592.475 432.546C592.859 432.63 593.207 432.732 593.519 432.852C593.831 432.96 594.143 433.122 594.455 433.338C594.779 433.542 595.031 433.818 595.211 434.166C595.391 434.514 595.481 434.916 595.481 435.372C595.481 436.296 595.133 437.01 594.437 437.514C593.741 438.006 592.883 438.252 591.863 438.252C590.015 438.252 588.755 437.538 588.083 436.11L590.099 434.976C590.375 435.756 590.963 436.146 591.863 436.146C592.691 436.146 593.105 435.888 593.105 435.372C593.105 434.988 592.559 434.658 591.467 434.382C591.059 434.274 590.711 434.166 590.423 434.058C590.135 433.95 589.823 433.794 589.487 433.59C589.151 433.374 588.893 433.104 588.713 432.78C588.545 432.444 588.461 432.054 588.461 431.61C588.461 430.722 588.785 430.026 589.433 429.522C590.093 429.006 590.909 428.748 591.881 428.748C592.613 428.748 593.279 428.916 593.879 429.252C594.479 429.576 594.953 430.044 595.301 430.656L593.321 431.736C593.033 431.124 592.553 430.818 591.881 430.818C591.581 430.818 591.329 430.89 591.125 431.034C590.933 431.166 590.837 431.34 590.837 431.556Z" fill="#979797"/>
<path d="M465.378 349.926C465.89 349.717 466.135 349.133 465.926 348.622L462.52 340.291C462.311 339.78 461.727 339.534 461.216 339.743C460.705 339.952 460.46 340.536 460.669 341.047L463.696 348.453L456.291 351.48C455.78 351.689 455.534 352.273 455.743 352.784C455.952 353.295 456.536 353.54 457.047 353.331L465.378 349.926ZM163.144 150.01C162.598 149.931 162.09 150.309 162.01 150.856L160.713 159.762C160.634 160.308 161.012 160.816 161.559 160.896C162.105 160.975 162.613 160.597 162.692 160.05L163.845 152.134L171.762 153.287C172.308 153.366 172.816 152.988 172.896 152.441C172.975 151.895 172.597 151.387 172.05 151.308L163.144 150.01ZM465.387 348.078C462.936 347.049 460.538 345.815 458.171 344.402L457.146 346.12C459.584 347.575 462.065 348.853 464.613 349.922L465.387 348.078ZM445.041 334.758C441.064 331.368 437.066 327.617 432.928 323.644L431.543 325.086C435.687 329.066 439.72 332.85 443.744 336.281L445.041 334.758ZM421.047 312.207C417.168 308.528 413.11 304.788 408.803 301.086L407.499 302.603C411.773 306.276 415.805 309.992 419.671 313.658L421.047 312.207ZM395.852 290.766C391.516 287.594 386.925 284.526 382.026 281.631L381.009 283.353C385.846 286.211 390.382 289.243 394.671 292.381L395.852 290.766ZM367.301 273.963C362.437 271.759 357.299 269.74 351.85 267.955L351.227 269.856C356.606 271.618 361.676 273.61 366.475 275.785L367.301 273.963ZM335.852 263.626C330.662 262.502 325.221 261.582 319.506 260.895L319.267 262.881C324.921 263.561 330.301 264.471 335.429 265.581L335.852 263.626ZM302.973 259.612C300.259 259.511 297.491 259.459 294.665 259.459L294.665 261.459C297.466 261.459 300.21 261.511 302.898 261.61L302.973 259.612ZM294.665 259.459C291.484 259.459 288.402 259.393 285.416 259.265L285.33 261.263C288.346 261.393 291.456 261.459 294.665 261.459L294.665 259.459ZM267.021 257.53C260.487 256.542 254.508 255.194 249.022 253.536L248.444 255.451C254.027 257.138 260.1 258.506 266.722 259.508L267.021 257.53ZM232 246.686C226.263 243.708 221.219 240.303 216.734 236.573L215.455 238.11C220.048 241.931 225.212 245.416 231.079 248.461L232 246.686ZM203.962 223.436C200.095 218.572 196.747 213.425 193.73 208.137L191.993 209.128C195.049 214.483 198.452 219.719 202.396 224.681L203.962 223.436ZM185.332 191.667C184.002 188.822 182.71 185.981 181.429 183.16C180.148 180.341 178.877 177.542 177.59 174.789L175.778 175.636C177.06 178.377 178.326 181.166 179.608 183.987C180.889 186.806 182.185 189.658 183.52 192.514L185.332 191.667ZM168.997 158.215C167.37 155.496 165.65 152.881 163.802 150.402L162.198 151.598C164 154.014 165.682 156.57 167.281 159.242L168.997 158.215Z" fill="#8D8D8D"/>
</svg>
